<svg version="1.1" viewBox="0.0 0.0 189.03674540682414 157.5301837270341" fill="none" stroke="none" stroke-linecap="square" stroke-miterlimit="10" xmlns:xlink="http://www.w3.org/1999/xlink" xmlns="http://www.w3.org/2000/svg"><clipPath id="p.0"><path d="m0 0l189.03674 0l0 157.53018l-189.03674 0l0 -157.53018z" clip-rule="nonzero"/></clipPath><g clip-path="url(#p.0)"><path fill="#000000" fill-opacity="0.0" d="m0 0l189.03674 0l0 157.53018l-189.03674 0z" fill-rule="evenodd"/><path fill="#ffffff" d="m1.968504 0l187.05511 0l0 157.5433l-187.05511 0z" fill-rule="evenodd"/><path stroke="#ffffff" stroke-width="1.0" stroke-linejoin="round" stroke-linecap="butt" d="m1.968504 0l187.05511 0l0 157.5433l-187.05511 0z" fill-rule="evenodd"/><path fill="#000000" fill-opacity="0.0" d="m12.723097 111.732285l163.59055 0" fill-rule="evenodd"/><path stroke="#000000" stroke-width="4.0" stroke-linejoin="round" stroke-linecap="butt" d="m12.723097 111.732285l163.59055 0" fill-rule="evenodd"/><path fill="#d0e0e3" d="m37.313488 17.783487l0 0c0 -2.120881 1.7193146 -3.8401957 3.8401947 -3.8401957l116.94937 0c1.0184784 0 1.9952545 0.40459156 2.7154236 1.1247673c0.7201843 0.7201767 1.1247711 1.6969461 1.1247711 2.7154284l0 72.99599c0 2.1208801 -1.7193146 3.8401947 -3.8401947 3.8401947l-116.94937 0c-2.1208801 0 -3.8401947 -1.7193146 -3.8401947 -3.8401947z" fill-rule="evenodd"/><path stroke="#000000" stroke-width="1.0" stroke-linejoin="round" stroke-linecap="butt" d="m37.313488 17.783487l0 0c0 -2.120881 1.7193146 -3.8401957 3.8401947 -3.8401957l116.94937 0c1.0184784 0 1.9952545 0.40459156 2.7154236 1.1247673c0.7201843 0.7201767 1.1247711 1.6969461 1.1247711 2.7154284l0 72.99599c0 2.1208801 -1.7193146 3.8401947 -3.8401947 3.8401947l-116.94937 0c-2.1208801 0 -3.8401947 -1.7193146 -3.8401947 -3.8401947z" fill-rule="evenodd"/><path fill="#cfe2f3" d="m40.282425 16.035116l118.58772 0l0 75.07417l-118.58772 0z" fill-rule="evenodd"/><path fill="#3c78d8" d="m45.198612 85.98881c-6.434948 -3.5543213 -9.038315 -18.670265 -2.5946846 -22.763138c6.4436264 -4.0928726 28.102226 -2.026558 41.256454 -1.7940979c13.154228 0.23246384 25.278725 3.1224136 37.668915 3.188858c12.3901825 0.06645203 31.731354 -6.524971 36.672195 -2.7901688c4.9408264 3.7348022 5.8041077 21.412102 -7.0272064 25.19899c-12.831299 3.7868881 -52.298058 -2.304245 -69.96068 -2.4776535c-17.66261 -0.17340851 -29.580048 4.9915314 -36.014996 1.4372101z" fill-rule="evenodd"/><path stroke="#000000" stroke-width="1.0" stroke-linejoin="round" stroke-linecap="butt" d="m45.198612 85.98881c-6.434948 -3.5543213 -9.038315 -18.670265 -2.5946846 -22.763138c6.4436264 -4.0928726 28.102226 -2.026558 41.256454 -1.7940979c13.154228 0.23246384 25.278725 3.1224136 37.668915 3.188858c12.3901825 0.06645203 31.731354 -6.524971 36.672195 -2.7901688c4.9408264 3.7348022 5.8041077 21.412102 -7.0272064 25.19899c-12.831299 3.7868881 -52.298058 -2.304245 -69.96068 -2.4776535c-17.66261 -0.17340851 -29.580048 4.9915314 -36.014996 1.4372101z" fill-rule="evenodd"/><path fill="#ffe599" d="m111.30413 80.45983l0 0c0 5.9962463 -15.971588 10.857162 -35.673546 10.857162q-17.83677 0 -35.673542 0q0 -5.428581 0 -10.857162l0 0c0 -5.9962463 15.971588 -10.85717 35.673542 -10.85717l0 0c19.701958 0 35.673546 4.860924 35.673546 10.85717z" fill-rule="evenodd"/><path fill="#ffe599" d="m98.11914 81.85652l0 0c0 5.2248764 13.672417 9.460472 30.538193 9.460472q15.319168 0 30.638351 0.031028748q-0.10015869 -4.7457504 -0.10015869 -9.491501l0 0c0 -5.2248764 -13.672424 -9.460472 -30.538193 -9.460472l0 0c-16.865776 0 -30.538193 4.2355957 -30.538193 9.460472z" fill-rule="evenodd"/><path fill="#ffe599" d="m40.78014 80.18782l117.762054 0l0 11.127243l-117.762054 0z" fill-rule="evenodd"/><path fill="#000000" d="m64.5226 56.20107l0 0c0 -2.8259163 3.3434525 -5.1167717 7.4678116 -5.1167717l0 0c4.1243515 0 7.467804 2.2908554 7.467804 5.1167717l0 0c0 2.8259163 -3.3434525 5.1167717 -7.467804 5.1167717l0 0c-4.124359 0 -7.4678116 -2.2908554 -7.4678116 -5.1167717z" fill-rule="evenodd"/><path fill="#000000" d="m66.27968 53.621574c-0.048828125 -0.31018448 -0.29296875 -0.67687225 -0.29296875 -1.8610954c0 -1.1842232 -0.4392166 -5.272461 0.29296875 -5.2442513c0.73217773 0.028205872 3.4167557 4.511242 4.1001053 5.4134903" fill-rule="evenodd"/><path fill="#000000" d="m77.37936 53.621803c0.048828125 -0.31018448 0.29296875 -0.67687225 0.29296875 -1.8610954c0 -1.1842232 0.43920898 -5.272461 -0.29296875 -5.2442513c-0.73218536 0.028205872 -3.4167633 4.511242 -4.100113 5.4134903" fill-rule="evenodd"/><path fill="#000000" fill-opacity="0.0" d="m62.033333 55.482895l4.833954 1.0154419" fill-rule="evenodd"/><path stroke="#000000" stroke-width="1.0" stroke-linejoin="round" stroke-linecap="butt" d="m62.033333 55.482895l4.833954 1.0154419" fill-rule="evenodd"/><path fill="#000000" fill-opacity="0.0" d="m61.593884 57.851162l6.0039177 -1.3583183" fill-rule="evenodd"/><path stroke="#000000" stroke-width="1.0" stroke-linejoin="round" stroke-linecap="butt" d="m61.593884 57.851162l6.0039177 -1.3583183" fill-rule="evenodd"/><path fill="#000000" fill-opacity="0.0" d="m62.325996 60.219627l6.0039215 -3.8903275" fill-rule="evenodd"/><path stroke="#000000" stroke-width="1.0" stroke-linejoin="round" stroke-linecap="butt" d="m62.325996 60.219627l6.0039215 -3.8903275" fill-rule="evenodd"/><path fill="#000000" fill-opacity="0.0" d="m82.532936 55.144417l-4.9994583 0.84400177" fill-rule="evenodd"/><path stroke="#000000" stroke-width="1.0" stroke-linejoin="round" stroke-linecap="butt" d="m82.532936 55.144417l-4.9994583 0.84400177" fill-rule="evenodd"/><path fill="#000000" fill-opacity="0.0" d="m81.91478 57.17447l-5.1820908 -1.3583183" fill-rule="evenodd"/><path stroke="#000000" stroke-width="1.0" stroke-linejoin="round" stroke-linecap="butt" d="m81.91478 57.17447l-5.1820908 -1.3583183" fill-rule="evenodd"/><path fill="#000000" fill-opacity="0.0" d="m80.90418 59.71211l-5.1820908 -3.8903313" fill-rule="evenodd"/><path stroke="#000000" stroke-width="1.0" stroke-linejoin="round" stroke-linecap="butt" d="m80.90418 59.71211l-5.1820908 -3.8903313" fill-rule="evenodd"/><path fill="#000000" d="m65.98649 65.88788l0 0c0 -3.3175354 2.4861832 -6.0069313 5.553055 -6.0069313l0 0c1.4727631 0 2.8852005 0.63287354 3.9266052 1.7593918c1.0413971 1.1265182 1.6264496 2.6544075 1.6264496 4.2475395l0 0c0 3.317543 -2.4861908 6.006935 -5.553055 6.006935l0 0c-3.0668716 0 -5.553055 -2.689392 -5.553055 -6.006935z" fill-rule="evenodd"/><path fill="#000000" d="m63.34978 72.63771l0 0c0 -3.6817017 3.6666832 -6.6663055 8.189762 -6.6663055l0 0c4.523079 0 8.189758 2.984604 8.189758 6.6663055l0 0c0 3.6817017 -3.6666794 6.666313 -8.189758 6.666313l0 0c-4.523079 0 -8.189762 -2.9846115 -8.189762 -6.666313z" fill-rule="evenodd"/><path fill="#000000" d="m68.61976 78.50563c-0.6059799 -0.14350891 -2.3559875 0.1359024 -3.635872 -0.8610382c-1.2798767 -0.99694824 -2.9428825 -2.5985947 -4.0434113 -5.1206207c-1.1005287 -2.5220337 -1.4042816 -8.572464 -2.559761 -10.011555c-1.1554794 -1.4390945 -3.8042564 0.77027893 -4.3731155 1.3769989c-0.5688591 0.60671616 0.39110184 2.0160484 0.95996094 2.263317c0.5688591 0.24726105 1.7599297 -1.9283142 2.4531898 -0.7797165c0.6932602 1.1485977 0.8531151 5.4608383 1.7063713 7.6713104c0.8532524 2.210472 1.9376869 4.2479553 3.4131508 5.59153c1.4754677 1.3435745 3.4943275 2.8324814 5.4396477 2.4699173c1.9453201 -0.3625641 5.4499207 -2.5458374 6.2322617 -4.645317c0.78234863 -2.0994797 -1.2818222 -6.6262894 -1.5381851 -7.9515457" fill-rule="evenodd"/><path stroke="#000000" stroke-width="1.0" stroke-linejoin="round" stroke-linecap="butt" d="m68.61976 78.50563c-0.6059799 -0.14350891 -2.3559875 0.1359024 -3.635872 -0.8610382c-1.2798767 -0.99694824 -2.9428825 -2.5985947 -4.0434113 -5.1206207c-1.1005287 -2.5220337 -1.4042816 -8.572464 -2.559761 -10.011555c-1.1554794 -1.4390945 -3.8042564 0.77027893 -4.3731155 1.3769989c-0.5688591 0.60671616 0.39110184 2.0160484 0.95996094 2.263317c0.5688591 0.24726105 1.7599297 -1.9283142 2.4531898 -0.7797165c0.6932602 1.1485977 0.8531151 5.4608383 1.7063713 7.6713104c0.8532524 2.210472 1.9376869 4.2479553 3.4131508 5.59153c1.4754677 1.3435745 3.4943275 2.8324814 5.4396477 2.4699173c1.9453201 -0.3625641 5.4499207 -2.5458374 6.2322617 -4.645317c0.78234863 -2.0994797 -1.2818222 -6.6262894 -1.5381851 -7.9515457" fill-rule="evenodd"/><path fill="#ffff00" d="m147.00871 23.426432l0 0c0 -3.2559566 2.6394806 -5.8954334 5.895447 -5.8954334l0 0c1.5635529 0 3.0630798 0.62112427 4.168701 1.7267323c1.1056061 1.105608 1.7267303 2.605135 1.7267303 4.168701l0 0c0 3.2559586 -2.6394806 5.8954334 -5.8954315 5.8954334l0 0c-3.2559662 0 -5.895447 -2.6394749 -5.895447 -5.8954334z" fill-rule="evenodd"/><path fill="#000000" fill-opacity="0.0" d="m137.73795 23.727377l7.1763763 -0.60189056" fill-rule="evenodd"/><path stroke="#ffff00" stroke-width="3.0" stroke-linejoin="round" stroke-linecap="butt" d="m137.73795 23.727377l7.1763763 -0.60189056" fill-rule="evenodd"/><path fill="#000000" fill-opacity="0.0" d="m141.6303 31.28476l5.378418 -3.1869297" fill-rule="evenodd"/><path stroke="#ffff00" stroke-width="3.0" stroke-linejoin="round" stroke-linecap="butt" d="m141.6303 31.28476l5.378418 -3.1869297" fill-rule="evenodd"/><path fill="#000000" fill-opacity="0.0" d="m150.21815 37.708454l1.1806335 -6.2735443" fill-rule="evenodd"/><path stroke="#ffff00" stroke-width="3.0" stroke-linejoin="round" stroke-linecap="butt" d="m150.21815 37.708454l1.1806335 -6.2735443" fill-rule="evenodd"/><path fill="#ffff00" d="m75.48461 35.536846l31.827362 -13.044556l19.001732 28.070663z" fill-rule="evenodd"/><path stroke="#000000" stroke-width="1.0" stroke-linejoin="round" stroke-linecap="butt" d="m75.48461 35.536846l31.827362 -13.044556l19.001732 28.070663z" fill-rule="evenodd"/><path fill="#e06666" d="m88.87141 39.317596l18.420937 -17.008177l5.5949173 24.107622z" fill-rule="evenodd"/><path stroke="#000000" stroke-width="1.0" stroke-linejoin="round" stroke-linecap="butt" d="m88.87141 39.317596l18.420937 -17.008177l5.5949173 24.107622z" fill-rule="evenodd"/><path fill="#000000" fill-opacity="0.0" d="m100.87933 42.867317l-9.869446 37.702995" fill-rule="evenodd"/><path stroke="#000000" stroke-width="3.0" stroke-linejoin="round" stroke-linecap="butt" d="m100.87933 42.867317l-9.869446 37.702995" fill-rule="evenodd"/><path fill="#d0e0e3" d="m158.85199 56.220905l2.4538574 0l0 28.790394l-2.4538574 0z" fill-rule="evenodd"/><path fill="#d0e0e3" d="m37.87617 62.590904l2.4538574 0l0 28.79039l-2.4538574 0z" fill-rule="evenodd"/><path fill="#d0e0e3" d="m90.91962 15.072478l68.414795 0l0 3.5573225l-68.414795 0z" fill-rule="evenodd"/><path fill="#000000" fill-opacity="0.0" d="m40.517136 18.741047l118.58772 0l0 72.53543l-118.58772 0z" fill-rule="evenodd"/><path stroke="#000000" stroke-width="1.0" stroke-linejoin="round" stroke-linecap="butt" d="m40.517136 18.741047l118.58772 0l0 72.53543l-118.58772 0z" fill-rule="evenodd"/><path fill="#000000" d="m98.8117 16.496119l0 0c0 -0.55189323 0.44740295 -0.99929047 0.99929047 -0.99929047l0 0c0.2650299 0 0.5192032 0.10528183 0.70661163 0.2926855c0.18740082 0.18740273 0.29268646 0.44157696 0.29268646 0.70660496l0 0c0 0.55189323 -0.44740295 0.9992924 -0.9992981 0.9992924l0 0c-0.5518875 0 -0.99929047 -0.44739914 -0.99929047 -0.9992924z" fill-rule="evenodd"/><path stroke="#000000" stroke-width="1.0" stroke-linejoin="round" stroke-linecap="butt" d="m98.8117 16.496119l0 0c0 -0.55189323 0.44740295 -0.99929047 0.99929047 -0.99929047l0 0c0.2650299 0 0.5192032 0.10528183 0.70661163 0.2926855c0.18740082 0.18740273 0.29268646 0.44157696 0.29268646 0.70660496l0 0c0 0.55189323 -0.44740295 0.9992924 -0.9992981 0.9992924l0 0c-0.5518875 0 -0.99929047 -0.44739914 -0.99929047 -0.9992924z" fill-rule="evenodd"/><path fill="#000000" fill-opacity="0.0" d="m158.95738 98.02571c2.0735016 -4.813652 10.16011 0 0 6.1889725c-10.160095 -6.1889725 -2.0734863 -11.0026245 0 -6.1889725z" fill-rule="evenodd"/><path stroke="#000000" stroke-width="2.0" stroke-linejoin="round" stroke-linecap="butt" d="m158.95738 98.02571c2.0735016 -4.813652 10.16011 0 0 6.1889725c-10.160095 -6.1889725 -2.0734863 -11.0026245 0 -6.1889725z" fill-rule="evenodd"/><path fill="#783f04" d="m159.72113 94.42126l0 7.259842l0 0c0 4.0094986 -4.0964203 7.259842 -9.149612 7.259842c-5.053177 0 -9.149597 -3.2503433 -9.149597 -7.259842l0 -7.259842z" fill-rule="evenodd"/><path stroke="#000000" stroke-width="2.0" stroke-linejoin="round" stroke-linecap="butt" d="m159.72113 94.42126l0 7.259842l0 0c0 4.0094986 -4.0964203 7.259842 -9.149612 7.259842c-5.053177 0 -9.149597 -3.2503433 -9.149597 -7.259842l0 -7.259842z" fill-rule="evenodd"/><path fill="#000000" fill-opacity="0.0" d="m148.31805 82.97632c-0.28982544 0.5508194 -1.8839722 2.2323074 -1.7390137 3.304924c0.1449585 1.0726166 2.4348907 2.0000916 2.6087952 3.1307602c0.17390442 1.1306686 -1.3044891 3.0443726 -1.5653839 3.653244" fill-rule="evenodd"/><path stroke="#000000" stroke-width="1.0" stroke-linejoin="round" stroke-linecap="butt" d="m148.31805 82.97632c-0.28982544 0.5508194 -1.8839722 2.2323074 -1.7390137 3.304924c0.1449585 1.0726166 2.4348907 2.0000916 2.6087952 3.1307602c0.17390442 1.1306686 -1.3044891 3.0443726 -1.5653839 3.653244" fill-rule="evenodd"/><path fill="#000000" fill-opacity="0.0" d="m151.00609 82.97632c-0.28982544 0.5508194 -1.8839722 2.2323074 -1.7390137 3.304924c0.1449585 1.0726166 2.4348907 2.0000916 2.6087952 3.1307602c0.17390442 1.1306686 -1.3044891 3.0443726 -1.5653839 3.653244" fill-rule="evenodd"/><path stroke="#000000" stroke-width="1.0" stroke-linejoin="round" stroke-linecap="butt" d="m151.00609 82.97632c-0.28982544 0.5508194 -1.8839722 2.2323074 -1.7390137 3.304924c0.1449585 1.0726166 2.4348907 2.0000916 2.6087952 3.1307602c0.17390442 1.1306686 -1.3044891 3.0443726 -1.5653839 3.653244" fill-rule="evenodd"/><path fill="#000000" fill-opacity="0.0" d="m153.69412 82.97632c-0.28982544 0.5508194 -1.8839722 2.2323074 -1.7390137 3.304924c0.1449585 1.0726166 2.4348907 2.0000916 2.6087952 3.1307602c0.17390442 1.1306686 -1.3044891 3.0443726 -1.5653839 3.653244" fill-rule="evenodd"/><path stroke="#000000" stroke-width="1.0" stroke-linejoin="round" stroke-linecap="butt" d="m153.69412 82.97632c-0.28982544 0.5508194 -1.8839722 2.2323074 -1.7390137 3.304924c0.1449585 1.0726166 2.4348907 2.0000916 2.6087952 3.1307602c0.17390442 1.1306686 -1.3044891 3.0443726 -1.5653839 3.653244" fill-rule="evenodd"/><path fill="#000000" fill-opacity="0.0" d="m20.723097 115.64283l23.874018 0" fill-rule="evenodd"/><path stroke="#000000" stroke-width="4.0" stroke-linejoin="round" stroke-linecap="butt" d="m20.723097 115.64283l23.874018 0" fill-rule="evenodd"/><path fill="#000000" fill-opacity="0.0" d="m146.7138 115.64283l23.874008 0" fill-rule="evenodd"/><path stroke="#000000" stroke-width="4.0" stroke-linejoin="round" stroke-linecap="butt" d="m146.7138 115.64283l23.874008 0" fill-rule="evenodd"/><path fill="#000000" fill-opacity="0.0" d="m158.65211 114.524925l0 25.322838" fill-rule="evenodd"/><path stroke="#000000" stroke-width="4.0" stroke-linejoin="round" stroke-linecap="butt" d="m158.65211 114.524925l0 25.322838" fill-rule="evenodd"/><path fill="#000000" fill-opacity="0.0" d="m32.660107 115.175804l0 25.322838" fill-rule="evenodd"/><path stroke="#000000" stroke-width="4.0" stroke-linejoin="round" stroke-linecap="butt" d="m32.660107 115.175804l0 25.322838" fill-rule="evenodd"/><path fill="#ea9999" d="m71.21977 89.58455c-3.0831146 3.9168854 -10.701221 17.918198 -12.999996 23.501312c-2.2987747 5.5831146 -3.24366 8.247589 -0.79265213 9.997368c2.4510078 1.7497864 4.4986877 0.33464813 15.498688 0.5013199c11.0 0.16666412 40.285652 0.66535187 50.501312 0.4986801c10.215668 -0.16666412 9.410767 1.0008774 10.792648 -1.4986801c1.381897 -2.4995651 -0.16798401 -8.498688 -2.5013123 -13.498688c-2.3333282 -5.0 -4.9501266 -14.751099 -11.498688 -16.501312c-6.5485535 -1.7502213 -20.542427 6.5 -27.792648 6.0c-7.2502213 -0.5 -12.174103 -7.5 -15.708664 -9.0c-3.5345535 -1.5 -2.4155731 -3.916893 -5.4986877 0z" fill-rule="evenodd"/><path stroke="#000000" stroke-width="1.0" stroke-linejoin="round" stroke-linecap="butt" d="m71.21977 89.58455c-3.0831146 3.9168854 -10.701221 17.918198 -12.999996 23.501312c-2.2987747 5.5831146 -3.24366 8.247589 -0.79265213 9.997368c2.4510078 1.7497864 4.4986877 0.33464813 15.498688 0.5013199c11.0 0.16666412 40.285652 0.66535187 50.501312 0.4986801c10.215668 -0.16666412 9.410767 1.0008774 10.792648 -1.4986801c1.381897 -2.4995651 -0.16798401 -8.498688 -2.5013123 -13.498688c-2.3333282 -5.0 -4.9501266 -14.751099 -11.498688 -16.501312c-6.5485535 -1.7502213 -20.542427 6.5 -27.792648 6.0c-7.2502213 -0.5 -12.174103 -7.5 -15.708664 -9.0c-3.5345535 -1.5 -2.4155731 -3.916893 -5.4986877 0z" fill-rule="evenodd"/><path fill="#000000" d="m74.526245 106.24686c1.0949249 -2.0564346 5.6531067 -7.8237076 6.569557 -12.338585c0.9164429 -4.5148697 -1.2720947 -9.856079 -1.0708694 -14.750656c0.20122528 -4.894577 -0.42082214 -10.854767 2.2782135 -14.616798c2.6990433 -3.7620277 9.177605 -7.575241 13.916016 -7.9553795c4.7384033 -0.3801384 11.178917 2.247593 14.514435 5.6745415c3.335518 3.4269485 4.9173203 9.81321 5.4986877 14.887138c0.5813675 5.073929 -2.8600159 10.661858 -2.010498 15.556427c0.8495178 4.894577 5.923004 11.509186 7.1076126 13.811028" fill-rule="evenodd"/><path stroke="#000000" stroke-width="1.0" stroke-linejoin="round" stroke-linecap="butt" d="m74.526245 106.24686c1.0949249 -2.0564346 5.6531067 -7.8237076 6.569557 -12.338585c0.9164429 -4.5148697 -1.2720947 -9.856079 -1.0708694 -14.750656c0.20122528 -4.894577 -0.42082214 -10.854767 2.2782135 -14.616798c2.6990433 -3.7620277 9.177605 -7.575241 13.916016 -7.9553795c4.7384033 -0.3801384 11.178917 2.247593 14.514435 5.6745415c3.335518 3.4269485 4.9173203 9.81321 5.4986877 14.887138c0.5813675 5.073929 -2.8600159 10.661858 -2.010498 15.556427c0.8495178 4.894577 5.923004 11.509186 7.1076126 13.811028" fill-rule="evenodd"/><path fill="#000000" fill-opacity="0.0" d="m131.97148 125.29472c-0.06037903 1.5839844 1.3027039 6.9448853 -0.36221313 9.503937c-1.664917 2.5590515 -8.022743 4.8753204 -9.627296 5.8503876" fill-rule="evenodd"/><path stroke="#000000" stroke-width="4.0" stroke-linejoin="round" stroke-linecap="butt" d="m131.97148 125.29472c-0.06037903 1.5839844 1.3027039 6.9448853 -0.36221313 9.503937c-1.664917 2.5590515 -8.022743 4.8753204 -9.627296 5.8503876" fill-rule="evenodd"/><path fill="#000000" fill-opacity="0.0" d="m60.91485 125.29341c0.060367584 1.5839844 -1.3027153 6.9448853 0.3622017 9.503937c1.664917 2.5590515 8.022747 4.8753204 9.6273 5.8503876" fill-rule="evenodd"/><path stroke="#000000" stroke-width="4.0" stroke-linejoin="round" stroke-linecap="butt" d="m60.91485 125.29341c0.060367584 1.5839844 -1.3027153 6.9448853 0.3622017 9.503937c1.664917 2.5590515 8.022747 4.8753204 9.6273 5.8503876" fill-rule="evenodd"/><path fill="#e69138" d="m77.48837 72.02985l37.416954 0l0 0c2.4809723 0 4.8603287 0.9855652 6.6146393 2.7398758c1.7543106 1.7543106 2.7398758 4.1336746 2.7398758 6.614647l0 62.20453c0 2.593994E-4 -2.0599365E-4 4.7302246E-4 -4.6539307E-4 4.7302246E-4l-56.12552 -4.7302246E-4l0 0c-2.593994E-4 0 -4.6539307E-4 -1.9836426E-4 -4.6539307E-4 -4.5776367E-4l4.6539307E-4 -62.20407l0 0c0 -5.166359 4.1881638 -9.354523 9.354515 -9.354523z" fill-rule="evenodd"/><path stroke="#000000" stroke-width="1.0" stroke-linejoin="round" stroke-linecap="butt" d="m77.48837 72.02985l37.416954 0l0 0c2.4809723 0 4.8603287 0.9855652 6.6146393 2.7398758c1.7543106 1.7543106 2.7398758 4.1336746 2.7398758 6.614647l0 62.20453c0 2.593994E-4 -2.0599365E-4 4.7302246E-4 -4.6539307E-4 4.7302246E-4l-56.12552 -4.7302246E-4l0 0c-2.593994E-4 0 -4.6539307E-4 -1.9836426E-4 -4.6539307E-4 -4.5776367E-4l4.6539307E-4 -62.20407l0 0c0 -5.166359 4.1881638 -9.354523 9.354515 -9.354523z" fill-rule="evenodd"/><path fill="#000000" fill-opacity="0.0" d="m72.67979 84.29494l47.527565 0" fill-rule="evenodd"/><path stroke="#f6b26b" stroke-width="3.0" stroke-linejoin="round" stroke-linecap="butt" d="m72.67979 84.29494l47.527565 0" fill-rule="evenodd"/><path fill="#000000" fill-opacity="0.0" d="m72.67979 100.29494l47.527565 0" fill-rule="evenodd"/><path stroke="#f6b26b" stroke-width="3.0" stroke-linejoin="round" stroke-linecap="butt" d="m72.67979 100.29494l47.527565 0" fill-rule="evenodd"/><path fill="#000000" fill-opacity="0.0" d="m72.67979 116.29494l47.527565 0" fill-rule="evenodd"/><path stroke="#f6b26b" stroke-width="3.0" stroke-linejoin="round" stroke-linecap="butt" d="m72.67979 116.29494l47.527565 0" fill-rule="evenodd"/><path fill="#000000" fill-opacity="0.0" d="m72.67979 132.29494l47.527565 0" fill-rule="evenodd"/><path stroke="#f6b26b" stroke-width="3.0" stroke-linejoin="round" stroke-linecap="butt" d="m72.67979 132.29494l47.527565 0" fill-rule="evenodd"/><path fill="#000000" fill-opacity="0.0" d="m126.75984 125.29494l10.141739 0" fill-rule="evenodd"/><path stroke="#e69138" stroke-width="4.0" stroke-linejoin="round" stroke-linecap="butt" d="m126.75984 125.29494l10.141739 0" fill-rule="evenodd"/><path fill="#000000" fill-opacity="0.0" d="m54.406826 125.29472l11.212597 0" fill-rule="evenodd"/><path stroke="#e69138" stroke-width="4.0" stroke-linejoin="round" stroke-linecap="butt" d="m54.406826 125.29472l11.212597 0" fill-rule="evenodd"/></g></svg>